# xmcd
#
# Track frame offsets:
#	150
#	20366
#	39363
#	60370
#	86739
#	106337
#	125694
#	143893
#	161579
#
# Disc length: 2426 seconds
#
# Revision: 17
# Processed by: cddbd v1.5.2PL0 Copyright (c) Steve Scherf et al.
# Submitted via: Jack! The Knife 20 Magnifico
#
DISCID=6f097809
DTITLE=Madonna - True Blue
DYEAR=1986
DGENRE=Pop
TTITLE0=Papa Don't Preach
TTITLE1=Open Your Heart
TTITLE2=White Heat
TTITLE3=Live To Tell
TTITLE4=Where's The Party
TTITLE5=True Blue
TTITLE6=La Isla Bonita
TTITLE7=Jimmy Jimmy
TTITLE8=Love Makes The World Go Round
EXTD=Madonna, Patrick Leonard and Stephen Bray
EXTT0=Elliott, Madonna
EXTT1=Madonna, Cole, Rafelson
EXTT2=Madonna, Leonard
EXTT3=Madonna, Leonard
EXTT4=Madonna, Bray, Leonard
EXTT5=Madonna, Bray
EXTT6=Madonna, Leonard, Gaitsch
EXTT7=Madonna, Bray
EXTT8=Madonna, Leonard
PLAYORDER=
